<?xml version="1.0" encoding="UTF-8" standalone="no"?>
<!-- Created with Inkscape (http://www.inkscape.org/) -->

<svg
   width="176.59291mm"
   height="25.440245mm"
   viewBox="0 0 176.59291 25.440245"
   version="1.1"
   id="svg1"
   xml:space="preserve"
   inkscape:version="1.4.2 (f4327f4, 2025-05-13)"
   sodipodi:docname="gota-logo-line.svg"
   xmlns:inkscape="http://www.inkscape.org/namespaces/inkscape"
   xmlns:sodipodi="http://sodipodi.sourceforge.net/DTD/sodipodi-0.dtd"
   xmlns="http://www.w3.org/2000/svg"
   xmlns:svg="http://www.w3.org/2000/svg"><sodipodi:namedview
     id="namedview1"
     pagecolor="#ffffff"
     bordercolor="#000000"
     borderopacity="0.25"
     inkscape:showpageshadow="2"
     inkscape:pageopacity="0.0"
     inkscape:pagecheckerboard="0"
     inkscape:deskcolor="#d1d1d1"
     inkscape:document-units="mm"
     inkscape:zoom="1.0396254"
     inkscape:cx="397.25847"
     inkscape:cy="561.25984"
     inkscape:window-width="3440"
     inkscape:window-height="1369"
     inkscape:window-x="-8"
     inkscape:window-y="-8"
     inkscape:window-maximized="1"
     inkscape:current-layer="layer1"><inkscape:page
       x="-2.4472581e-14"
       y="0"
       width="176.59293"
       height="25.440245"
       id="page2"
       margin="0"
       bleed="0" /></sodipodi:namedview><defs
     id="defs1" /><g
     inkscape:label="Layer 1"
     inkscape:groupmode="layer"
     id="layer1"
     transform="translate(-13.4106,-117.00505)"><path
  style="fill:#000000"
       d="m 23.789157,142.28121 -0.750405,-0.14088 -0.750404,-0.23172 -0.750405,-0.23171 -1.072006,-0.52425 -1.072007,-0.52425 -0.924937,-0.69691 -0.924937,-0.69691 -0.754874,-0.80831 -0.754873,-0.80831 -0.476933,-0.72394 -0.476933,-0.72394 -0.350035,-0.69341 -0.350034,-0.69342 -0.254354,-0.67575 -0.254355,-0.67576 -0.230445,-0.98726 -0.230446,-0.98725 -8.6e-5,-1.71521 -8.7e-5,-1.71521 0.183851,-0.83984 0.183851,-0.83984 0.321403,-0.9106 0.321403,-0.91061 0.383891,-0.71517 0.383891,-0.71517 0.520494,-0.75666 0.520493,-0.75665 0.992423,-0.96746 0.992422,-0.96747 0.643204,-0.43103 0.643204,-0.43104 0.715173,-0.38485 0.715173,-0.38486 0.910603,-0.32141 0.910604,-0.3214 0.839838,-0.18385 0.839838,-0.18385 1.715211,8e-5 1.71521,9e-5 0.987256,0.23045 0.987256,0.23044 0.705483,0.26554 0.705484,0.26555 0.880076,0.45754 0.880075,0.45754 0.809568,0.60963 0.809567,0.60963 0.749635,0.78917 0.749635,0.78917 0.609481,0.91599 0.60948,0.916 0.369658,0.81116 0.369658,0.81116 0.229406,0.7345 0.229406,0.73451 0.153324,0.8576 0.153324,0.85761 1.47e-4,1.35276 1.46e-4,1.35277 -0.160739,0.92175 -0.160739,0.92174 -0.267701,0.82008 -0.2677,0.82008 -0.410183,0.81823 -0.410182,0.81823 -0.274583,0.43383 -0.274582,0.43383 -0.669615,0.83238 -0.669616,0.83238 -0.763195,0.64326 -0.763195,0.64326 -0.563546,0.37477 -0.563546,0.37477 -0.830062,0.40829 -0.830063,0.4083 -0.809818,0.27808 -0.809819,0.27807 -0.946234,0.16501 -0.946234,0.16501 -1.459966,-0.0116 -1.459967,-0.0116 z m 4.770428,-1.93895 v -0.0662 l -0.614193,-0.81607 -0.614194,-0.81607 -0.547008,-0.91332 -0.547008,-0.91333 -0.394405,-0.92554 -0.394406,-0.92554 -0.217191,-0.84327 -0.217192,-0.84327 -0.06486,-0.82247 -0.06486,-0.82247 0.39037,-0.53179 0.390369,-0.53179 0.442817,-0.40006 0.442817,-0.40006 0.600053,-0.27471 0.600053,-0.27472 1.396024,-0.0741 1.396024,-0.0741 0.428802,-0.18035 0.428803,-0.18036 0.345997,-0.33486 0.345998,-0.33487 0.189711,-0.54411 0.189711,-0.5441 2.95e-4,-1.51869 2.94e-4,-1.51869 -0.07198,-0.072 -0.07199,-0.072 -0.464019,0.27182 -0.464018,0.27183 -1.109028,0.38593 -1.109029,0.38594 -0.396315,0.25018 -0.396316,0.25019 -0.329387,0.37515 -0.329387,0.37515 -0.294441,0.78996 -0.294441,0.78997 -0.165003,0.40174 -0.165003,0.40173 -0.546642,0.51339 -0.546642,0.51338 -0.385321,0.29089 -0.385321,0.29089 h -0.06008 -0.06008 l 0.05329,-0.45561 0.05329,-0.4556 0.160306,-0.6968 0.160305,-0.69681 0.265803,-0.804 0.265803,-0.80401 1.060422,-2.19761 1.060422,-2.19761 0.31832,-0.96481 0.31832,-0.9648 0.06259,-0.42881 0.06259,-0.4288 -0.211325,0.4556 -0.211326,0.45561 h -2.41641 -2.416411 v 1.92961 1.92961 H 21.537941 19.66193 v 2.46561 2.46562 h 1.875063 1.875064 l 0.02775,5.65483 0.02775,5.65483 2.465614,0.0566 2.465615,0.0566 0.0804,0.0238 0.0804,0.0238 z m -0.321602,-13.0446 v -0.0834 l 0.208226,-0.40816 0.208226,-0.40816 0.247377,-0.16061 0.247376,-0.16062 0.589604,-0.22173 0.589604,-0.22172 0.214401,-0.0786 0.214401,-0.0786 -0.107201,0.11503 -0.1072,0.11503 -0.867587,0.43717 -0.867587,0.43718 -0.28482,0.4003 -0.28482,0.40031 z m 20.077183,6.63046 -0.451739,-0.14118 -0.471717,-0.27644 -0.471716,-0.27645 -0.479576,-0.48645 -0.479576,-0.48644 -0.298392,-0.6094 -0.298392,-0.60939 -0.115984,-0.67712 -0.115985,-0.67711 0.129406,-0.75463 0.129406,-0.75464 0.276613,-0.54587 0.276613,-0.54587 0.484763,-0.51825 0.484762,-0.51825 0.464049,-0.27195 0.464049,-0.27195 0.676979,-0.17356 0.676979,-0.17355 0.696937,0.0583 0.696937,0.0583 0.600757,0.22477 0.600757,0.22477 0.497917,0.32981 0.497916,0.3298 v 0.13202 0.13201 l -0.264498,0.24848 -0.264499,0.24848 -0.351905,-0.26793 -0.351905,-0.26792 -0.482403,-0.25638 -0.482403,-0.25637 -1.018406,-3e-4 -1.018406,-2.9e-4 -0.488569,0.28723 -0.488569,0.28722 -0.458989,0.49795 -0.458989,0.49794 -0.230061,0.50124 -0.230061,0.50123 -0.0016,0.96481 -0.0016,0.9648 0.278113,0.58961 0.278114,0.5896 0.472291,0.47229 0.472291,0.47229 0.589603,0.27363 0.589604,0.27362 0.750404,-0.0108 0.750405,-0.0108 0.482403,-0.17668 0.482403,-0.17669 0.402002,-0.27818 0.402002,-0.27819 v -1.00042 -1.00043 l -1.259607,-0.0302 -1.259608,-0.0302 -0.03327,-0.402 -0.03327,-0.402 h 1.721681 1.721682 v 1.5969 1.59691 l -0.378183,0.33204 -0.378183,0.33205 -0.399022,0.20324 -0.399022,0.20323 -0.58226,0.17263 -0.582261,0.17262 -0.757747,-0.007 -0.757748,-0.007 z m 26.330932,-0.0409 -0.599366,-0.19865 -0.478772,-0.3294 -0.478773,-0.3294 -0.408181,-0.45181 -0.408181,-0.45181 -0.266919,-0.58303 -0.266918,-0.58302 -0.111617,-0.72111 -0.111616,-0.7211 0.181956,-0.81785 0.181956,-0.81786 0.408459,-0.63197 0.408458,-0.63196 0.470435,-0.38118 0.470434,-0.38119 0.375203,-0.19085 0.375202,-0.19085 0.536003,-0.14283 0.536003,-0.14283 0.540281,-10e-4 0.540281,-0.001 0.630901,0.16433 0.6309,0.16433 0.511743,0.27853 0.511743,0.27852 0.238573,0.25395 0.238574,0.25395 -0.251774,0.268 -0.251775,0.268 h -0.125499 -0.1255 l -0.204216,-0.22598 -0.204216,-0.22599 -0.536003,-0.27472 -0.536003,-0.27471 -0.873462,-0.0482 -0.873461,-0.0482 -0.586613,0.26856 -0.586612,0.26856 -0.441699,0.39905 -0.441699,0.39905 -0.331779,0.67393 -0.331778,0.67394 -0.05762,0.63544 -0.05762,0.63544 0.182912,0.6292 0.182913,0.6292 0.306357,0.44527 0.306357,0.44528 0.402847,0.3537 0.402847,0.3537 0.434248,0.19007 0.434249,0.19007 0.494495,0.0724 0.494496,0.0724 0.684711,-0.17492 0.684712,-0.17492 0.375203,-0.26259 0.375202,-0.26259 0.247985,-0.17964 0.247986,-0.17964 0.282654,0.28266 0.282654,0.28265 -0.260451,0.27724 -0.260451,0.27723 -0.776304,0.38367 -0.776304,0.38367 -0.994693,0.04 -0.994694,0.0399 z m 19.89408,0.004 -0.537403,-0.18583 -0.48997,-0.28714 -0.489969,-0.28714 -0.40502,-0.44831 -0.40502,-0.44831 -0.336418,-0.71003 -0.336418,-0.71003 v -1.1792 -1.17921 l 0.330879,-0.6968 0.330879,-0.69681 0.480432,-0.49326 0.480432,-0.49326 0.475097,-0.27837 0.475096,-0.27837 0.638927,-0.16637 0.638926,-0.16638 h 0.50393 0.503929 l 0.652555,0.2031 0.652556,0.2031 0.540378,0.34676 0.54038,0.34676 0.36812,0.44923 0.36811,0.44924 0.2753,0.60133 0.275304,0.60133 0.10107,0.62099 0.10106,0.621 -0.11016,0.68959 -0.11016,0.68958 -0.260294,0.55021 -0.26029,0.55021 -0.3878,0.45306 -0.38781,0.45306 -0.454892,0.31298 -0.454895,0.31298 -0.657733,0.22157 -0.657733,0.22157 -0.726986,-0.004 -0.726986,-0.004 z m 2.696586,-0.93745 0.551172,-0.26771 0.450038,-0.48824 0.450037,-0.48823 0.282175,-0.60838 0.28218,-0.60838 v -0.8576 -0.85761 l -0.27842,-0.5896 -0.278426,-0.5896 -0.390643,-0.44828 -0.390643,-0.44828 -0.658244,-0.32893 -0.658244,-0.32892 -0.760083,0.002 -0.760082,0.002 -0.456283,0.20711 -0.456283,0.20711 -0.365481,0.27876 -0.365481,0.27877 -0.381277,0.55697 -0.381277,0.55698 -0.174102,0.68615 -0.174102,0.68615 0.06906,0.5527 0.06906,0.55271 0.248394,0.52995 0.248394,0.52996 0.444497,0.50023 0.444497,0.50022 0.495418,0.23983 0.495419,0.23983 0.334179,0.0856 0.334179,0.0856 0.589603,-0.0509 0.589604,-0.0509 z m 8.775286,-2.36441 -2.89442,-3.49118 -0.0283,3.43933 -0.0283,3.43934 h -0.42731 -0.42732 v -4.39522 -4.39523 h 0.0895 0.0895 l 2.88531,3.44535 2.88532,3.44535 0.0283,-3.3314 0.0283,-3.33141 0.22062,-0.07 0.22062,-0.07 0.26026,0.0653 0.26027,0.0653 v 4.33958 4.33958 l -0.134,-0.002 -0.134,-0.002 z m 47.22188,3.42063 -0.268,-0.0449 -0.536,-0.16703 -0.53601,-0.16702 -0.4556,-0.26044 -0.4556,-0.26043 v -0.10645 -0.10645 l 0.16756,-0.25574 0.16757,-0.25573 0.82404,0.3935 0.82404,0.39351 h 1.17921 1.1792 l 0.40032,-0.19901 0.40031,-0.19902 0.21609,-0.34964 0.21609,-0.34964 v -0.4821 -0.48209 l -0.20661,-0.26266 -0.20661,-0.26267 -0.40979,-0.18059 -0.4098,-0.18059 -1.31073,-0.25724 -1.31073,-0.25725 -0.49195,-0.23815 -0.49195,-0.23815 -0.27625,-0.41743 -0.27624,-0.41743 10e-4,-0.56119 0.001,-0.56118 0.18032,-0.42881 0.18032,-0.4288 0.33029,-0.34128 0.33029,-0.34127 0.50935,-0.21912 0.50936,-0.21912 0.57533,-0.0652 0.57533,-0.0652 0.68894,0.11344 0.68895,0.11345 0.78506,0.37282 0.78507,0.37282 v 0.14224 0.14223 l -0.16259,0.23212 -0.16258,0.23212 -0.82903,-0.39587 -0.82902,-0.39587 h -1.0184 -1.01841 l -0.37484,0.2202 -0.37483,0.2202 -0.24157,0.35846 -0.24157,0.35846 v 0.4583 0.4583 l 0.30915,0.30915 0.30915,0.30915 0.44782,0.13417 0.44782,0.13417 0.95329,0.15418 0.95329,0.15419 0.58809,0.22003 0.58809,0.22003 0.32356,0.36851 0.32355,0.36851 0.12291,0.45643 0.1229,0.45643 -0.12051,0.53851 -0.12052,0.53852 -0.21205,0.34869 -0.21205,0.34869 -0.49318,0.31276 -0.49318,0.31277 -0.53073,0.11382 -0.53073,0.11382 -0.66473,-0.0146 -0.66473,-0.0146 z m -98.063003,-4.34796 0.02802,-4.31483 1.929611,0.0154 1.929612,0.0154 0.475041,0.17429 0.475041,0.17428 0.367432,0.28026 0.367432,0.28025 0.200379,0.44125 0.200378,0.44125 v 0.7504 0.7504 l -0.198529,0.42881 -0.198529,0.4288 -0.308319,0.28911 -0.30832,0.28912 -0.402002,0.16793 -0.402003,0.16792 v 0.065 0.065 l 1.125607,1.58239 1.125607,1.58239 v 0.12001 0.12001 h -0.380321 -0.380321 l -0.236083,-0.25774 -0.236083,-0.25774 -1.018406,-1.45337 -1.018406,-1.45337 -1.152407,-0.004 -1.152407,-0.004 v 1.71521 1.71521 h -0.430018 -0.430019 z m 4.184153,-0.12244 0.404113,-0.1988 0.229343,-0.32208 0.229342,-0.32208 0.04899,-0.50981 0.04899,-0.50981 -0.122116,-0.37002 -0.122117,-0.37001 -0.292324,-0.2711 -0.292324,-0.2711 -0.364399,-0.12179 -0.364399,-0.12178 h -1.377611 -1.377612 v 1.83269 1.83269 l 1.474009,-0.0391 1.474009,-0.0391 z m 3.046782,4.35686 -0.04578,-0.0804 2.048113,-4.31482 2.048113,-4.31483 0.108551,10e-4 0.108551,0.001 2.026343,4.279 2.026342,4.279 0.01047,0.0881 0.01047,0.0882 -0.460889,0.0332 -0.460889,0.0332 -0.550995,-1.18563 -0.550995,-1.18563 H 66.56221 64.405153 l -0.54801,1.1792 -0.54801,1.17921 h -0.430747 -0.430747 z m 5.677824,-3.80562 -0.353124,-0.7772 -0.568269,-1.25961 -0.568268,-1.25961 h -0.02781 -0.02781 l -0.568269,1.25961 -0.568268,1.25961 -0.353124,0.7772 -0.353124,0.7772 h 1.870598 1.870598 z m 13.033796,-0.4288 0.02802,-4.31483 2.626416,-0.0302 2.626415,-0.0302 0.241202,0.059 0.241201,0.059 v 0.37316 0.37316 h -2.465614 -2.465615 v 1.50081 1.50081 h 2.188845 2.188846 l 0.169568,0.0651 0.169569,0.0651 v 0.36373 0.36374 h -2.358414 -2.358414 v 1.55239 1.5524 l 2.438814,0.0288 2.438815,0.0288 0.03327,0.402 0.03327,0.402 H 83.98757 81.085466 Z m 35.855998,4.24846 -0.0766,-0.0766 v -3.84136 -3.84135 h -1.56089 -1.56088 l 0.0333,-0.40201 0.0333,-0.402 3.32322,-0.03 3.32322,-0.03 0.2412,0.0588 0.2412,0.0588 v 0.37316 0.37316 h -1.55307 -1.55307 l -0.0281,3.88602 -0.0281,3.88603 -0.37903,0.0319 -0.37904,0.0319 z m 5.52345,-4.24846 0.028,-4.31483 h 0.3752 0.3752 l 0.0536,1.92961 0.0536,1.92961 2.43882,0.0288 2.43881,0.0288 v -1.92958 -1.92958 l 0.26027,-0.0653 0.26026,-0.0653 0.22336,0.0709 0.22337,0.0709 -0.028,4.25361 -0.028,4.25362 h -0.4288 -0.42881 l -0.0292,-1.95842 -0.0292,-1.95842 -2.43639,0.0288 -2.43639,0.0288 -0.0292,1.95641 -0.0292,1.95641 h -0.4276 -0.4276 z m 9.26685,4.24507 -0.0732,-0.0732 v -4.20509 -4.20509 l 0.16957,-0.0651 0.16957,-0.0651 2.64445,0.002 2.64445,0.002 0.14258,0.0904 0.14259,0.0904 -0.0354,0.30997 -0.0354,0.30997 -2.43882,0.0288 -2.43881,0.0288 v 1.4988 1.49879 l 2.22441,0.002 2.22442,0.002 0.14258,0.0904 0.14259,0.0904 -0.0354,0.30997 -0.0354,0.30997 -2.33162,0.0289 -2.33161,0.0289 v 1.55031 1.55031 l 2.43881,0.0288 2.43882,0.0288 v 0.3752 0.3752 l -2.84804,0.0285 -2.84803,0.0285 z m 10.00368,-0.0582 v -0.14031 l 2.01002,-4.22548 2.01001,-4.22548 0.11324,-0.0376 0.11325,-0.0376 2.05757,4.32146 2.05756,4.32145 v 0.0817 0.0817 l -0.49722,-0.0327 -0.49722,-0.0327 -0.51707,-1.12561 -0.51708,-1.1256 h -2.17061 -2.17062 l -0.40586,0.8576 -0.40585,0.85761 -0.13787,0.268 -0.13787,0.268 -0.45219,0.033 -0.45219,0.033 z m 5.8588,-3.32924 -0.14731,-0.3484 -0.72533,-1.60801 -0.72534,-1.60801 -0.0709,-0.0792 -0.071,-0.0792 -0.88026,1.95604 -0.88025,1.95603 v 0.0796 0.0796 h 1.82385 1.82385 z m 11.90078,3.38575 -0.0715,-0.0715 v -4.21451 -4.21452 l 0.26026,-0.0653 0.26027,-0.0653 0.22214,0.0705 0.22213,0.0705 v 1.92239 1.92239 h 2.46562 2.46561 v -1.92757 -1.92757 l 0.2846,-0.0714 0.28459,-0.0714 0.17101,0.10787 0.17101,0.10787 v 4.22274 4.22274 l -0.4556,0.033 -0.45561,0.033 v -1.98938 -1.98937 h -2.46561 -2.46562 v 1.98321 1.98321 h -0.41093 -0.41094 z m 9.30392,-0.0628 -0.0515,-0.1343 0.0281,-4.11527 0.0281,-4.11528 0.17101,-0.10784 0.17101,-0.10783 0.2846,0.0714 0.28459,0.0714 v 3.85718 3.85718 h 2.19761 2.19762 v 0.4288 0.4288 h -2.62978 -2.62978 z m 7.02631,-4.15168 v -4.28599 l 0.2412,-0.059 0.2412,-0.059 2.62641,0.0302 2.62642,0.0302 0.0333,0.40201 0.0333,0.402 h -2.47208 -2.47209 v 1.49872 1.49871 l 2.33162,0.0289 2.33161,0.0289 0.0333,0.40201 0.0333,0.402 h -2.36488 -2.36489 v 1.55441 1.55441 h 2.46562 2.46561 v 0.4288 0.4288 h -2.89442 -2.89441 z m 10.074,2.59757 -0.003,-1.68841 -1.65072,-2.56926 -1.65071,-2.56927 0.0519,-0.084 0.0519,-0.084 h 0.3034 0.3034 l 0.21669,0.18761 0.21669,0.1876 1.25193,1.95641 1.25192,1.95641 h 0.0889 0.0889 l 1.31078,-2.06361 1.31078,-2.06361 0.0291,-0.0358 0.0291,-0.0358 0.43765,-0.0587 0.43766,-0.0587 -0.002,0.14811 -0.002,0.14812 -1.6053,2.51921 -1.6053,2.51922 -4.1e-4,1.68841 -4.1e-4,1.68841 h -0.4288 -0.4288 z"
       id="path1" /></g></svg>
